<svg width="56" height="56" viewBox="0 0 56 56" fill="none" xmlns="http://www.w3.org/2000/svg">
<rect width="56" height="56" rx="28" fill="#1ED760"/>
<path d="M23.05 19.606L36.54 27.394C36.6463 27.4555 36.7346 27.5438 36.7959 27.6502C36.8573 27.7565 36.8896 27.8772 36.8896 28C36.8896 28.1228 36.8573 28.2434 36.7959 28.3498C36.7346 28.4562 36.6463 28.5445 36.54 28.606L23.05 36.394C22.9436 36.4554 22.8229 36.4878 22.7001 36.4878C22.5772 36.4878 22.4565 36.4555 22.3501 36.394C22.2437 36.3326 22.1553 36.2443 22.0939 36.1379C22.0324 36.0315 22 35.9108 22 35.788V20.212C22 20.0891 22.0324 19.9684 22.0939 19.8621C22.1553 19.7557 22.2437 19.6673 22.3501 19.6059C22.4565 19.5445 22.5772 19.5122 22.7001 19.5122C22.8229 19.5122 22.9436 19.5446 23.05 19.606Z" fill="black"/>
</svg>
